<mxfile host="Electron" modified="2024-06-06T20:08:48.936Z" agent="Mozilla/5.0 (X11; Linux x86_64) AppleWebKit/537.36 (KHTML, like Gecko) draw.io/24.4.8 Chrome/124.0.6367.207 Electron/30.0.6 Safari/537.36" etag="Kvs1R3JWDRBWKHNglzAc" version="24.4.8" type="device">
  <diagram name="Page-1" id="WkhFxJkhf97Uc7qAZ4B1">
    <mxGraphModel dx="353" dy="419" grid="1" gridSize="10" guides="1" tooltips="1" connect="1" arrows="1" fold="1" page="1" pageScale="1" pageWidth="1169" pageHeight="827" math="1" shadow="0">
      <root>
        <mxCell id="0" />
        <mxCell id="1" parent="0" />
        <mxCell id="B9rQnbaMN1pnAV0mWjBz-1" value="" style="whiteSpace=wrap;html=1;aspect=fixed;strokeColor=#D4E1F5;fillColor=#D4E1F5;" vertex="1" parent="1">
          <mxGeometry x="250" y="190" width="100" height="100" as="geometry" />
        </mxCell>
        <mxCell id="B9rQnbaMN1pnAV0mWjBz-2" value="" style="rounded=0;whiteSpace=wrap;html=1;strokeColor=#004C99;fillColor=none" vertex="1" parent="1">
          <mxGeometry x="265" y="200" width="70" height="80" as="geometry" />
        </mxCell>
        <mxCell id="B9rQnbaMN1pnAV0mWjBz-3" value="" style="endArrow=none;html=1;rounded=0;strokeColor=#004C99;" edge="1" parent="1">
          <mxGeometry width="50" height="50" relative="1" as="geometry">
            <mxPoint x="265" y="210" as="sourcePoint" />
            <mxPoint x="335" y="210" as="targetPoint" />
          </mxGeometry>
        </mxCell>
        <mxCell id="B9rQnbaMN1pnAV0mWjBz-4" value="" style="endArrow=none;html=1;rounded=0;strokeColor=#004C99;" edge="1" parent="1">
          <mxGeometry width="50" height="50" relative="1" as="geometry">
            <mxPoint x="265" y="220" as="sourcePoint" />
            <mxPoint x="335" y="220" as="targetPoint" />
          </mxGeometry>
        </mxCell>
        <mxCell id="B9rQnbaMN1pnAV0mWjBz-5" value="" style="endArrow=none;html=1;rounded=0;strokeColor=#004C99;" edge="1" parent="1">
          <mxGeometry width="50" height="50" relative="1" as="geometry">
            <mxPoint x="265" y="230" as="sourcePoint" />
            <mxPoint x="335" y="230" as="targetPoint" />
          </mxGeometry>
        </mxCell>
        <mxCell id="B9rQnbaMN1pnAV0mWjBz-6" value="" style="endArrow=none;html=1;rounded=0;strokeColor=#004C99;" edge="1" parent="1">
          <mxGeometry width="50" height="50" relative="1" as="geometry">
            <mxPoint x="265" y="239.72000000000003" as="sourcePoint" />
            <mxPoint x="335" y="239.72000000000003" as="targetPoint" />
          </mxGeometry>
        </mxCell>
        <mxCell id="B9rQnbaMN1pnAV0mWjBz-7" value="" style="endArrow=none;html=1;rounded=0;strokeColor=#004C99;" edge="1" parent="1">
          <mxGeometry width="50" height="50" relative="1" as="geometry">
            <mxPoint x="265" y="250" as="sourcePoint" />
            <mxPoint x="335" y="250" as="targetPoint" />
          </mxGeometry>
        </mxCell>
        <mxCell id="B9rQnbaMN1pnAV0mWjBz-8" value="" style="endArrow=none;html=1;rounded=0;strokeColor=#004C99;" edge="1" parent="1">
          <mxGeometry width="50" height="50" relative="1" as="geometry">
            <mxPoint x="265" y="260" as="sourcePoint" />
            <mxPoint x="335" y="260" as="targetPoint" />
          </mxGeometry>
        </mxCell>
        <mxCell id="B9rQnbaMN1pnAV0mWjBz-9" value="" style="endArrow=none;html=1;rounded=0;strokeColor=#004C99;" edge="1" parent="1">
          <mxGeometry width="50" height="50" relative="1" as="geometry">
            <mxPoint x="265" y="270" as="sourcePoint" />
            <mxPoint x="335" y="270" as="targetPoint" />
          </mxGeometry>
        </mxCell>
        <mxCell id="B9rQnbaMN1pnAV0mWjBz-11" value="" style="rounded=0;whiteSpace=wrap;html=1;fillColor=#7EA6E0;strokeColor=#7EA6E0;" vertex="1" parent="1">
          <mxGeometry x="350" y="220" width="10" height="40" as="geometry" />
        </mxCell>
        <mxCell id="B9rQnbaMN1pnAV0mWjBz-12" value="" style="rounded=0;whiteSpace=wrap;html=1;fillColor=#7EA6E0;strokeColor=#7EA6E0;" vertex="1" parent="1">
          <mxGeometry x="240" y="220" width="10" height="40" as="geometry" />
        </mxCell>
        <mxCell id="B9rQnbaMN1pnAV0mWjBz-15" value="" style="rounded=0;whiteSpace=wrap;html=1;fillColor=#7EA6E0;strokeColor=#7EA6E0;" vertex="1" parent="1">
          <mxGeometry x="280" y="290" width="40" height="10" as="geometry" />
        </mxCell>
        <mxCell id="B9rQnbaMN1pnAV0mWjBz-16" value="" style="rounded=0;whiteSpace=wrap;html=1;fillColor=#7EA6E0;strokeColor=#7EA6E0;" vertex="1" parent="1">
          <mxGeometry x="280" y="180" width="40" height="10" as="geometry" />
        </mxCell>
        <mxCell id="B9rQnbaMN1pnAV0mWjBz-17" value="" style="whiteSpace=wrap;html=1;aspect=fixed;strokeColor=#D4E1F5;fillColor=#D4E1F5;" vertex="1" parent="1">
          <mxGeometry x="430" y="190" width="100" height="100" as="geometry" />
        </mxCell>
        <mxCell id="B9rQnbaMN1pnAV0mWjBz-18" value="" style="rounded=0;whiteSpace=wrap;html=1;strokeColor=#004C99;fillColor=none" vertex="1" parent="1">
          <mxGeometry x="445" y="200" width="70" height="80" as="geometry" />
        </mxCell>
        <mxCell id="B9rQnbaMN1pnAV0mWjBz-19" value="" style="endArrow=none;html=1;rounded=0;strokeColor=#004C99;" edge="1" parent="1">
          <mxGeometry width="50" height="50" relative="1" as="geometry">
            <mxPoint x="445" y="210" as="sourcePoint" />
            <mxPoint x="515" y="210" as="targetPoint" />
          </mxGeometry>
        </mxCell>
        <mxCell id="B9rQnbaMN1pnAV0mWjBz-20" value="" style="endArrow=none;html=1;rounded=0;strokeColor=#004C99;" edge="1" parent="1">
          <mxGeometry width="50" height="50" relative="1" as="geometry">
            <mxPoint x="445" y="220" as="sourcePoint" />
            <mxPoint x="515" y="220" as="targetPoint" />
          </mxGeometry>
        </mxCell>
        <mxCell id="B9rQnbaMN1pnAV0mWjBz-21" value="" style="endArrow=none;html=1;rounded=0;strokeColor=#004C99;" edge="1" parent="1">
          <mxGeometry width="50" height="50" relative="1" as="geometry">
            <mxPoint x="445" y="230" as="sourcePoint" />
            <mxPoint x="515" y="230" as="targetPoint" />
          </mxGeometry>
        </mxCell>
        <mxCell id="B9rQnbaMN1pnAV0mWjBz-22" value="" style="endArrow=none;html=1;rounded=0;strokeColor=#004C99;" edge="1" parent="1">
          <mxGeometry width="50" height="50" relative="1" as="geometry">
            <mxPoint x="445" y="239.72000000000003" as="sourcePoint" />
            <mxPoint x="515" y="239.72000000000003" as="targetPoint" />
          </mxGeometry>
        </mxCell>
        <mxCell id="B9rQnbaMN1pnAV0mWjBz-23" value="" style="endArrow=none;html=1;rounded=0;strokeColor=#004C99;" edge="1" parent="1">
          <mxGeometry width="50" height="50" relative="1" as="geometry">
            <mxPoint x="445" y="250" as="sourcePoint" />
            <mxPoint x="515" y="250" as="targetPoint" />
          </mxGeometry>
        </mxCell>
        <mxCell id="B9rQnbaMN1pnAV0mWjBz-24" value="" style="endArrow=none;html=1;rounded=0;strokeColor=#004C99;" edge="1" parent="1">
          <mxGeometry width="50" height="50" relative="1" as="geometry">
            <mxPoint x="445" y="260" as="sourcePoint" />
            <mxPoint x="515" y="260" as="targetPoint" />
          </mxGeometry>
        </mxCell>
        <mxCell id="B9rQnbaMN1pnAV0mWjBz-25" value="" style="endArrow=none;html=1;rounded=0;strokeColor=#004C99;" edge="1" parent="1">
          <mxGeometry width="50" height="50" relative="1" as="geometry">
            <mxPoint x="445" y="270" as="sourcePoint" />
            <mxPoint x="515" y="270" as="targetPoint" />
          </mxGeometry>
        </mxCell>
        <mxCell id="B9rQnbaMN1pnAV0mWjBz-26" value="" style="rounded=0;whiteSpace=wrap;html=1;fillColor=#7EA6E0;strokeColor=#7EA6E0;" vertex="1" parent="1">
          <mxGeometry x="530" y="220" width="10" height="40" as="geometry" />
        </mxCell>
        <mxCell id="B9rQnbaMN1pnAV0mWjBz-27" value="" style="rounded=0;whiteSpace=wrap;html=1;fillColor=#7EA6E0;strokeColor=#7EA6E0;" vertex="1" parent="1">
          <mxGeometry x="420" y="220" width="10" height="40" as="geometry" />
        </mxCell>
        <mxCell id="B9rQnbaMN1pnAV0mWjBz-28" value="" style="rounded=0;whiteSpace=wrap;html=1;fillColor=#7EA6E0;strokeColor=#7EA6E0;" vertex="1" parent="1">
          <mxGeometry x="460" y="290" width="40" height="10" as="geometry" />
        </mxCell>
        <mxCell id="B9rQnbaMN1pnAV0mWjBz-29" value="" style="rounded=0;whiteSpace=wrap;html=1;fillColor=#7EA6E0;strokeColor=#7EA6E0;" vertex="1" parent="1">
          <mxGeometry x="460" y="180" width="40" height="10" as="geometry" />
        </mxCell>
        <mxCell id="B9rQnbaMN1pnAV0mWjBz-43" value="" style="whiteSpace=wrap;html=1;aspect=fixed;strokeColor=#D4E1F5;fillColor=#D4E1F5;" vertex="1" parent="1">
          <mxGeometry x="610" y="190" width="100" height="100" as="geometry" />
        </mxCell>
        <mxCell id="B9rQnbaMN1pnAV0mWjBz-44" value="" style="rounded=0;whiteSpace=wrap;html=1;strokeColor=#004C99;fillColor=none" vertex="1" parent="1">
          <mxGeometry x="625" y="200" width="70" height="80" as="geometry" />
        </mxCell>
        <mxCell id="B9rQnbaMN1pnAV0mWjBz-45" value="" style="endArrow=none;html=1;rounded=0;strokeColor=#004C99;" edge="1" parent="1">
          <mxGeometry width="50" height="50" relative="1" as="geometry">
            <mxPoint x="625" y="210" as="sourcePoint" />
            <mxPoint x="695" y="210" as="targetPoint" />
          </mxGeometry>
        </mxCell>
        <mxCell id="B9rQnbaMN1pnAV0mWjBz-46" value="" style="endArrow=none;html=1;rounded=0;strokeColor=#004C99;" edge="1" parent="1">
          <mxGeometry width="50" height="50" relative="1" as="geometry">
            <mxPoint x="625" y="220" as="sourcePoint" />
            <mxPoint x="695" y="220" as="targetPoint" />
          </mxGeometry>
        </mxCell>
        <mxCell id="B9rQnbaMN1pnAV0mWjBz-47" value="" style="endArrow=none;html=1;rounded=0;strokeColor=#004C99;" edge="1" parent="1">
          <mxGeometry width="50" height="50" relative="1" as="geometry">
            <mxPoint x="625" y="230" as="sourcePoint" />
            <mxPoint x="695" y="230" as="targetPoint" />
          </mxGeometry>
        </mxCell>
        <mxCell id="B9rQnbaMN1pnAV0mWjBz-48" value="" style="endArrow=none;html=1;rounded=0;strokeColor=#004C99;" edge="1" parent="1">
          <mxGeometry width="50" height="50" relative="1" as="geometry">
            <mxPoint x="625" y="239.72000000000003" as="sourcePoint" />
            <mxPoint x="695" y="239.72000000000003" as="targetPoint" />
          </mxGeometry>
        </mxCell>
        <mxCell id="B9rQnbaMN1pnAV0mWjBz-49" value="" style="endArrow=none;html=1;rounded=0;strokeColor=#004C99;" edge="1" parent="1">
          <mxGeometry width="50" height="50" relative="1" as="geometry">
            <mxPoint x="625" y="250" as="sourcePoint" />
            <mxPoint x="695" y="250" as="targetPoint" />
          </mxGeometry>
        </mxCell>
        <mxCell id="B9rQnbaMN1pnAV0mWjBz-50" value="" style="endArrow=none;html=1;rounded=0;strokeColor=#004C99;" edge="1" parent="1">
          <mxGeometry width="50" height="50" relative="1" as="geometry">
            <mxPoint x="625" y="260" as="sourcePoint" />
            <mxPoint x="695" y="260" as="targetPoint" />
          </mxGeometry>
        </mxCell>
        <mxCell id="B9rQnbaMN1pnAV0mWjBz-51" value="" style="endArrow=none;html=1;rounded=0;strokeColor=#004C99;" edge="1" parent="1">
          <mxGeometry width="50" height="50" relative="1" as="geometry">
            <mxPoint x="625" y="270" as="sourcePoint" />
            <mxPoint x="695" y="270" as="targetPoint" />
          </mxGeometry>
        </mxCell>
        <mxCell id="B9rQnbaMN1pnAV0mWjBz-52" value="" style="rounded=0;whiteSpace=wrap;html=1;fillColor=#7EA6E0;strokeColor=#7EA6E0;" vertex="1" parent="1">
          <mxGeometry x="710" y="220" width="10" height="40" as="geometry" />
        </mxCell>
        <mxCell id="B9rQnbaMN1pnAV0mWjBz-53" value="" style="rounded=0;whiteSpace=wrap;html=1;fillColor=#7EA6E0;strokeColor=#7EA6E0;" vertex="1" parent="1">
          <mxGeometry x="600" y="220" width="10" height="40" as="geometry" />
        </mxCell>
        <mxCell id="B9rQnbaMN1pnAV0mWjBz-54" value="" style="rounded=0;whiteSpace=wrap;html=1;fillColor=#7EA6E0;strokeColor=#7EA6E0;" vertex="1" parent="1">
          <mxGeometry x="640" y="290" width="40" height="10" as="geometry" />
        </mxCell>
        <mxCell id="B9rQnbaMN1pnAV0mWjBz-55" value="" style="rounded=0;whiteSpace=wrap;html=1;fillColor=#7EA6E0;strokeColor=#7EA6E0;" vertex="1" parent="1">
          <mxGeometry x="640" y="180" width="40" height="10" as="geometry" />
        </mxCell>
        <mxCell id="B9rQnbaMN1pnAV0mWjBz-56" value="" style="whiteSpace=wrap;html=1;aspect=fixed;strokeColor=#D4E1F5;fillColor=#D4E1F5;" vertex="1" parent="1">
          <mxGeometry x="250" y="370" width="100" height="100" as="geometry" />
        </mxCell>
        <mxCell id="B9rQnbaMN1pnAV0mWjBz-57" value="" style="rounded=0;whiteSpace=wrap;html=1;strokeColor=#004C99;fillColor=none" vertex="1" parent="1">
          <mxGeometry x="265" y="380" width="70" height="80" as="geometry" />
        </mxCell>
        <mxCell id="B9rQnbaMN1pnAV0mWjBz-58" value="" style="endArrow=none;html=1;rounded=0;strokeColor=#004C99;" edge="1" parent="1">
          <mxGeometry width="50" height="50" relative="1" as="geometry">
            <mxPoint x="265" y="390" as="sourcePoint" />
            <mxPoint x="335" y="390" as="targetPoint" />
          </mxGeometry>
        </mxCell>
        <mxCell id="B9rQnbaMN1pnAV0mWjBz-59" value="" style="endArrow=none;html=1;rounded=0;strokeColor=#004C99;" edge="1" parent="1">
          <mxGeometry width="50" height="50" relative="1" as="geometry">
            <mxPoint x="265" y="400" as="sourcePoint" />
            <mxPoint x="335" y="400" as="targetPoint" />
          </mxGeometry>
        </mxCell>
        <mxCell id="B9rQnbaMN1pnAV0mWjBz-60" value="" style="endArrow=none;html=1;rounded=0;strokeColor=#004C99;" edge="1" parent="1">
          <mxGeometry width="50" height="50" relative="1" as="geometry">
            <mxPoint x="265" y="410" as="sourcePoint" />
            <mxPoint x="335" y="410" as="targetPoint" />
          </mxGeometry>
        </mxCell>
        <mxCell id="B9rQnbaMN1pnAV0mWjBz-61" value="" style="endArrow=none;html=1;rounded=0;strokeColor=#004C99;" edge="1" parent="1">
          <mxGeometry width="50" height="50" relative="1" as="geometry">
            <mxPoint x="265" y="419.72" as="sourcePoint" />
            <mxPoint x="335" y="419.72" as="targetPoint" />
          </mxGeometry>
        </mxCell>
        <mxCell id="B9rQnbaMN1pnAV0mWjBz-62" value="" style="endArrow=none;html=1;rounded=0;strokeColor=#004C99;" edge="1" parent="1">
          <mxGeometry width="50" height="50" relative="1" as="geometry">
            <mxPoint x="265" y="430" as="sourcePoint" />
            <mxPoint x="335" y="430" as="targetPoint" />
          </mxGeometry>
        </mxCell>
        <mxCell id="B9rQnbaMN1pnAV0mWjBz-63" value="" style="endArrow=none;html=1;rounded=0;strokeColor=#004C99;" edge="1" parent="1">
          <mxGeometry width="50" height="50" relative="1" as="geometry">
            <mxPoint x="265" y="440" as="sourcePoint" />
            <mxPoint x="335" y="440" as="targetPoint" />
          </mxGeometry>
        </mxCell>
        <mxCell id="B9rQnbaMN1pnAV0mWjBz-64" value="" style="endArrow=none;html=1;rounded=0;strokeColor=#004C99;" edge="1" parent="1">
          <mxGeometry width="50" height="50" relative="1" as="geometry">
            <mxPoint x="265" y="450" as="sourcePoint" />
            <mxPoint x="335" y="450" as="targetPoint" />
          </mxGeometry>
        </mxCell>
        <mxCell id="B9rQnbaMN1pnAV0mWjBz-65" value="" style="rounded=0;whiteSpace=wrap;html=1;fillColor=#7EA6E0;strokeColor=#7EA6E0;" vertex="1" parent="1">
          <mxGeometry x="350" y="400" width="10" height="40" as="geometry" />
        </mxCell>
        <mxCell id="B9rQnbaMN1pnAV0mWjBz-66" value="" style="rounded=0;whiteSpace=wrap;html=1;fillColor=#7EA6E0;strokeColor=#7EA6E0;" vertex="1" parent="1">
          <mxGeometry x="240" y="400" width="10" height="40" as="geometry" />
        </mxCell>
        <mxCell id="B9rQnbaMN1pnAV0mWjBz-67" value="" style="rounded=0;whiteSpace=wrap;html=1;fillColor=#7EA6E0;strokeColor=#7EA6E0;" vertex="1" parent="1">
          <mxGeometry x="280" y="470" width="40" height="10" as="geometry" />
        </mxCell>
        <mxCell id="B9rQnbaMN1pnAV0mWjBz-68" value="" style="rounded=0;whiteSpace=wrap;html=1;fillColor=#7EA6E0;strokeColor=#7EA6E0;" vertex="1" parent="1">
          <mxGeometry x="280" y="360" width="40" height="10" as="geometry" />
        </mxCell>
        <mxCell id="B9rQnbaMN1pnAV0mWjBz-69" value="" style="whiteSpace=wrap;html=1;aspect=fixed;strokeColor=#D4E1F5;fillColor=#D4E1F5;" vertex="1" parent="1">
          <mxGeometry x="430" y="370" width="100" height="100" as="geometry" />
        </mxCell>
        <mxCell id="B9rQnbaMN1pnAV0mWjBz-70" value="" style="rounded=0;whiteSpace=wrap;html=1;strokeColor=#004C99;fillColor=none" vertex="1" parent="1">
          <mxGeometry x="445" y="380" width="70" height="80" as="geometry" />
        </mxCell>
        <mxCell id="B9rQnbaMN1pnAV0mWjBz-71" value="" style="endArrow=none;html=1;rounded=0;strokeColor=#004C99;" edge="1" parent="1">
          <mxGeometry width="50" height="50" relative="1" as="geometry">
            <mxPoint x="445" y="390" as="sourcePoint" />
            <mxPoint x="515" y="390" as="targetPoint" />
          </mxGeometry>
        </mxCell>
        <mxCell id="B9rQnbaMN1pnAV0mWjBz-72" value="" style="endArrow=none;html=1;rounded=0;strokeColor=#004C99;" edge="1" parent="1">
          <mxGeometry width="50" height="50" relative="1" as="geometry">
            <mxPoint x="445" y="400" as="sourcePoint" />
            <mxPoint x="515" y="400" as="targetPoint" />
          </mxGeometry>
        </mxCell>
        <mxCell id="B9rQnbaMN1pnAV0mWjBz-73" value="" style="endArrow=none;html=1;rounded=0;strokeColor=#004C99;" edge="1" parent="1">
          <mxGeometry width="50" height="50" relative="1" as="geometry">
            <mxPoint x="445" y="410" as="sourcePoint" />
            <mxPoint x="515" y="410" as="targetPoint" />
          </mxGeometry>
        </mxCell>
        <mxCell id="B9rQnbaMN1pnAV0mWjBz-74" value="" style="endArrow=none;html=1;rounded=0;strokeColor=#004C99;" edge="1" parent="1">
          <mxGeometry width="50" height="50" relative="1" as="geometry">
            <mxPoint x="445" y="419.72" as="sourcePoint" />
            <mxPoint x="515" y="419.72" as="targetPoint" />
          </mxGeometry>
        </mxCell>
        <mxCell id="B9rQnbaMN1pnAV0mWjBz-75" value="" style="endArrow=none;html=1;rounded=0;strokeColor=#004C99;" edge="1" parent="1">
          <mxGeometry width="50" height="50" relative="1" as="geometry">
            <mxPoint x="445" y="430" as="sourcePoint" />
            <mxPoint x="515" y="430" as="targetPoint" />
          </mxGeometry>
        </mxCell>
        <mxCell id="B9rQnbaMN1pnAV0mWjBz-76" value="" style="endArrow=none;html=1;rounded=0;strokeColor=#004C99;" edge="1" parent="1">
          <mxGeometry width="50" height="50" relative="1" as="geometry">
            <mxPoint x="445" y="440" as="sourcePoint" />
            <mxPoint x="515" y="440" as="targetPoint" />
          </mxGeometry>
        </mxCell>
        <mxCell id="B9rQnbaMN1pnAV0mWjBz-77" value="" style="endArrow=none;html=1;rounded=0;strokeColor=#004C99;" edge="1" parent="1">
          <mxGeometry width="50" height="50" relative="1" as="geometry">
            <mxPoint x="445" y="450" as="sourcePoint" />
            <mxPoint x="515" y="450" as="targetPoint" />
          </mxGeometry>
        </mxCell>
        <mxCell id="B9rQnbaMN1pnAV0mWjBz-78" value="" style="rounded=0;whiteSpace=wrap;html=1;fillColor=#7EA6E0;strokeColor=#7EA6E0;" vertex="1" parent="1">
          <mxGeometry x="530" y="400" width="10" height="40" as="geometry" />
        </mxCell>
        <mxCell id="B9rQnbaMN1pnAV0mWjBz-79" value="" style="rounded=0;whiteSpace=wrap;html=1;fillColor=#7EA6E0;strokeColor=#7EA6E0;" vertex="1" parent="1">
          <mxGeometry x="420" y="400" width="10" height="40" as="geometry" />
        </mxCell>
        <mxCell id="B9rQnbaMN1pnAV0mWjBz-80" value="" style="rounded=0;whiteSpace=wrap;html=1;fillColor=#7EA6E0;strokeColor=#7EA6E0;" vertex="1" parent="1">
          <mxGeometry x="460" y="470" width="40" height="10" as="geometry" />
        </mxCell>
        <mxCell id="B9rQnbaMN1pnAV0mWjBz-81" value="" style="rounded=0;whiteSpace=wrap;html=1;fillColor=#7EA6E0;strokeColor=#7EA6E0;" vertex="1" parent="1">
          <mxGeometry x="460" y="360" width="40" height="10" as="geometry" />
        </mxCell>
        <mxCell id="B9rQnbaMN1pnAV0mWjBz-82" value="" style="whiteSpace=wrap;html=1;aspect=fixed;strokeColor=#D4E1F5;fillColor=#D4E1F5;" vertex="1" parent="1">
          <mxGeometry x="610" y="370" width="100" height="100" as="geometry" />
        </mxCell>
        <mxCell id="B9rQnbaMN1pnAV0mWjBz-83" value="" style="rounded=0;whiteSpace=wrap;html=1;strokeColor=#004C99;fillColor=none" vertex="1" parent="1">
          <mxGeometry x="625" y="380" width="70" height="80" as="geometry" />
        </mxCell>
        <mxCell id="B9rQnbaMN1pnAV0mWjBz-84" value="" style="endArrow=none;html=1;rounded=0;strokeColor=#004C99;" edge="1" parent="1">
          <mxGeometry width="50" height="50" relative="1" as="geometry">
            <mxPoint x="625" y="390" as="sourcePoint" />
            <mxPoint x="695" y="390" as="targetPoint" />
          </mxGeometry>
        </mxCell>
        <mxCell id="B9rQnbaMN1pnAV0mWjBz-85" value="" style="endArrow=none;html=1;rounded=0;strokeColor=#004C99;" edge="1" parent="1">
          <mxGeometry width="50" height="50" relative="1" as="geometry">
            <mxPoint x="625" y="400" as="sourcePoint" />
            <mxPoint x="695" y="400" as="targetPoint" />
          </mxGeometry>
        </mxCell>
        <mxCell id="B9rQnbaMN1pnAV0mWjBz-86" value="" style="endArrow=none;html=1;rounded=0;strokeColor=#004C99;" edge="1" parent="1">
          <mxGeometry width="50" height="50" relative="1" as="geometry">
            <mxPoint x="625" y="410" as="sourcePoint" />
            <mxPoint x="695" y="410" as="targetPoint" />
          </mxGeometry>
        </mxCell>
        <mxCell id="B9rQnbaMN1pnAV0mWjBz-87" value="" style="endArrow=none;html=1;rounded=0;strokeColor=#004C99;" edge="1" parent="1">
          <mxGeometry width="50" height="50" relative="1" as="geometry">
            <mxPoint x="625" y="419.72" as="sourcePoint" />
            <mxPoint x="695" y="419.72" as="targetPoint" />
          </mxGeometry>
        </mxCell>
        <mxCell id="B9rQnbaMN1pnAV0mWjBz-88" value="" style="endArrow=none;html=1;rounded=0;strokeColor=#004C99;" edge="1" parent="1">
          <mxGeometry width="50" height="50" relative="1" as="geometry">
            <mxPoint x="625" y="430" as="sourcePoint" />
            <mxPoint x="695" y="430" as="targetPoint" />
          </mxGeometry>
        </mxCell>
        <mxCell id="B9rQnbaMN1pnAV0mWjBz-89" value="" style="endArrow=none;html=1;rounded=0;strokeColor=#004C99;" edge="1" parent="1">
          <mxGeometry width="50" height="50" relative="1" as="geometry">
            <mxPoint x="625" y="440" as="sourcePoint" />
            <mxPoint x="695" y="440" as="targetPoint" />
          </mxGeometry>
        </mxCell>
        <mxCell id="B9rQnbaMN1pnAV0mWjBz-90" value="" style="endArrow=none;html=1;rounded=0;strokeColor=#004C99;" edge="1" parent="1" source="B9rQnbaMN1pnAV0mWjBz-156">
          <mxGeometry width="50" height="50" relative="1" as="geometry">
            <mxPoint x="625" y="450" as="sourcePoint" />
            <mxPoint x="695" y="450" as="targetPoint" />
          </mxGeometry>
        </mxCell>
        <mxCell id="B9rQnbaMN1pnAV0mWjBz-91" value="" style="rounded=0;whiteSpace=wrap;html=1;fillColor=#7EA6E0;strokeColor=#7EA6E0;" vertex="1" parent="1">
          <mxGeometry x="710" y="400" width="10" height="40" as="geometry" />
        </mxCell>
        <mxCell id="B9rQnbaMN1pnAV0mWjBz-92" value="" style="rounded=0;whiteSpace=wrap;html=1;fillColor=#7EA6E0;strokeColor=#7EA6E0;" vertex="1" parent="1">
          <mxGeometry x="600" y="400" width="10" height="40" as="geometry" />
        </mxCell>
        <mxCell id="B9rQnbaMN1pnAV0mWjBz-93" value="" style="rounded=0;whiteSpace=wrap;html=1;fillColor=#7EA6E0;strokeColor=#7EA6E0;" vertex="1" parent="1">
          <mxGeometry x="640" y="470" width="40" height="10" as="geometry" />
        </mxCell>
        <mxCell id="B9rQnbaMN1pnAV0mWjBz-94" value="" style="rounded=0;whiteSpace=wrap;html=1;fillColor=#7EA6E0;strokeColor=#7EA6E0;" vertex="1" parent="1">
          <mxGeometry x="640" y="360" width="40" height="10" as="geometry" />
        </mxCell>
        <mxCell id="B9rQnbaMN1pnAV0mWjBz-95" value="" style="whiteSpace=wrap;html=1;aspect=fixed;fillColor=#7EA6E0;strokeColor=#7EA6E0;" vertex="1" parent="1">
          <mxGeometry x="470" y="320" width="20" height="20" as="geometry" />
        </mxCell>
        <mxCell id="B9rQnbaMN1pnAV0mWjBz-96" value="" style="whiteSpace=wrap;html=1;aspect=fixed;fillColor=#7EA6E0;strokeColor=#7EA6E0;" vertex="1" parent="1">
          <mxGeometry x="290" y="320" width="20" height="20" as="geometry" />
        </mxCell>
        <mxCell id="B9rQnbaMN1pnAV0mWjBz-97" value="" style="whiteSpace=wrap;html=1;aspect=fixed;fillColor=#7EA6E0;strokeColor=#7EA6E0;" vertex="1" parent="1">
          <mxGeometry x="650" y="320" width="20" height="20" as="geometry" />
        </mxCell>
        <mxCell id="B9rQnbaMN1pnAV0mWjBz-98" value="" style="whiteSpace=wrap;html=1;aspect=fixed;fillColor=#7EA6E0;strokeColor=#7EA6E0;" vertex="1" parent="1">
          <mxGeometry x="560" y="230" width="20" height="20" as="geometry" />
        </mxCell>
        <mxCell id="B9rQnbaMN1pnAV0mWjBz-99" value="" style="whiteSpace=wrap;html=1;aspect=fixed;fillColor=#7EA6E0;strokeColor=#7EA6E0;" vertex="1" parent="1">
          <mxGeometry x="560" y="410" width="20" height="20" as="geometry" />
        </mxCell>
        <mxCell id="B9rQnbaMN1pnAV0mWjBz-100" value="" style="whiteSpace=wrap;html=1;aspect=fixed;fillColor=#7EA6E0;strokeColor=#7EA6E0;" vertex="1" parent="1">
          <mxGeometry x="380" y="410" width="20" height="20" as="geometry" />
        </mxCell>
        <mxCell id="B9rQnbaMN1pnAV0mWjBz-101" value="" style="whiteSpace=wrap;html=1;aspect=fixed;fillColor=#7EA6E0;strokeColor=#7EA6E0;" vertex="1" parent="1">
          <mxGeometry x="380" y="230" width="20" height="20" as="geometry" />
        </mxCell>
        <mxCell id="B9rQnbaMN1pnAV0mWjBz-102" value="" style="shape=flexArrow;endArrow=classic;html=1;rounded=0;fillColor=#99CCFF;strokeColor=#99CCFF;" edge="1" parent="1">
          <mxGeometry width="50" height="50" relative="1" as="geometry">
            <mxPoint x="200" y="240" as="sourcePoint" />
            <mxPoint x="240" y="240" as="targetPoint" />
          </mxGeometry>
        </mxCell>
        <mxCell id="B9rQnbaMN1pnAV0mWjBz-103" value="" style="shape=flexArrow;endArrow=classic;html=1;rounded=0;fillColor=#99CCFF;strokeColor=#99CCFF;" edge="1" parent="1">
          <mxGeometry width="50" height="50" relative="1" as="geometry">
            <mxPoint x="200" y="419.72" as="sourcePoint" />
            <mxPoint x="240" y="419.72" as="targetPoint" />
          </mxGeometry>
        </mxCell>
        <mxCell id="B9rQnbaMN1pnAV0mWjBz-104" value="" style="shape=flexArrow;endArrow=classic;html=1;rounded=0;fillColor=#99CCFF;strokeColor=#99CCFF;" edge="1" parent="1">
          <mxGeometry width="50" height="50" relative="1" as="geometry">
            <mxPoint x="299.72" y="520.56" as="sourcePoint" />
            <mxPoint x="299.72" y="480" as="targetPoint" />
          </mxGeometry>
        </mxCell>
        <mxCell id="B9rQnbaMN1pnAV0mWjBz-106" value="" style="shape=flexArrow;endArrow=classic;html=1;rounded=0;fillColor=#99CCFF;strokeColor=#99CCFF;" edge="1" parent="1">
          <mxGeometry width="50" height="50" relative="1" as="geometry">
            <mxPoint x="479.72" y="520.56" as="sourcePoint" />
            <mxPoint x="479.72" y="480" as="targetPoint" />
          </mxGeometry>
        </mxCell>
        <mxCell id="B9rQnbaMN1pnAV0mWjBz-107" value="" style="shape=flexArrow;endArrow=classic;html=1;rounded=0;fillColor=#99CCFF;strokeColor=#99CCFF;" edge="1" parent="1">
          <mxGeometry width="50" height="50" relative="1" as="geometry">
            <mxPoint x="659.72" y="520.56" as="sourcePoint" />
            <mxPoint x="659.72" y="480" as="targetPoint" />
          </mxGeometry>
        </mxCell>
        <mxCell id="B9rQnbaMN1pnAV0mWjBz-108" value="" style="shape=flexArrow;endArrow=classic;html=1;rounded=0;fillColor=#99CCFF;strokeColor=#99CCFF;" edge="1" parent="1">
          <mxGeometry width="50" height="50" relative="1" as="geometry">
            <mxPoint x="760" y="420" as="sourcePoint" />
            <mxPoint x="719.44" y="419.44" as="targetPoint" />
          </mxGeometry>
        </mxCell>
        <mxCell id="B9rQnbaMN1pnAV0mWjBz-109" value="" style="shape=flexArrow;endArrow=classic;html=1;rounded=0;fillColor=#99CCFF;strokeColor=#99CCFF;" edge="1" parent="1">
          <mxGeometry width="50" height="50" relative="1" as="geometry">
            <mxPoint x="760.56" y="240.28" as="sourcePoint" />
            <mxPoint x="720" y="239.72" as="targetPoint" />
          </mxGeometry>
        </mxCell>
        <mxCell id="B9rQnbaMN1pnAV0mWjBz-110" value="" style="shape=flexArrow;endArrow=classic;html=1;rounded=0;fillColor=#99CCFF;strokeColor=#99CCFF;" edge="1" parent="1">
          <mxGeometry width="50" height="50" relative="1" as="geometry">
            <mxPoint x="660" y="140" as="sourcePoint" />
            <mxPoint x="660" y="179" as="targetPoint" />
          </mxGeometry>
        </mxCell>
        <mxCell id="B9rQnbaMN1pnAV0mWjBz-111" value="" style="shape=flexArrow;endArrow=classic;html=1;rounded=0;fillColor=#99CCFF;strokeColor=#99CCFF;" edge="1" parent="1">
          <mxGeometry width="50" height="50" relative="1" as="geometry">
            <mxPoint x="479.72" y="141" as="sourcePoint" />
            <mxPoint x="479.72" y="180" as="targetPoint" />
          </mxGeometry>
        </mxCell>
        <mxCell id="B9rQnbaMN1pnAV0mWjBz-112" value="" style="shape=flexArrow;endArrow=classic;html=1;rounded=0;fillColor=#99CCFF;strokeColor=#99CCFF;" edge="1" parent="1">
          <mxGeometry width="50" height="50" relative="1" as="geometry">
            <mxPoint x="299.72" y="141" as="sourcePoint" />
            <mxPoint x="299.72" y="180" as="targetPoint" />
          </mxGeometry>
        </mxCell>
        <mxCell id="B9rQnbaMN1pnAV0mWjBz-113" value="" style="shape=flexArrow;endArrow=classic;html=1;rounded=0;fillColor=#99CCFF;strokeColor=#99CCFF;" edge="1" parent="1">
          <mxGeometry width="50" height="50" relative="1" as="geometry">
            <mxPoint x="570" y="140" as="sourcePoint" />
            <mxPoint x="569.72" y="229" as="targetPoint" />
          </mxGeometry>
        </mxCell>
        <mxCell id="B9rQnbaMN1pnAV0mWjBz-114" value="" style="shape=flexArrow;endArrow=classic;html=1;rounded=0;fillColor=#99CCFF;strokeColor=#99CCFF;" edge="1" parent="1">
          <mxGeometry width="50" height="50" relative="1" as="geometry">
            <mxPoint x="390" y="140" as="sourcePoint" />
            <mxPoint x="389.72" y="229" as="targetPoint" />
          </mxGeometry>
        </mxCell>
        <mxCell id="B9rQnbaMN1pnAV0mWjBz-115" value="" style="shape=flexArrow;endArrow=classic;html=1;rounded=0;fillColor=#99CCFF;strokeColor=#99CCFF;" edge="1" parent="1">
          <mxGeometry width="50" height="50" relative="1" as="geometry">
            <mxPoint x="200" y="330" as="sourcePoint" />
            <mxPoint x="290" y="329.72" as="targetPoint" />
          </mxGeometry>
        </mxCell>
        <mxCell id="B9rQnbaMN1pnAV0mWjBz-116" value="" style="shape=flexArrow;endArrow=classic;html=1;rounded=0;fillColor=#99CCFF;strokeColor=#99CCFF;" edge="1" parent="1">
          <mxGeometry width="50" height="50" relative="1" as="geometry">
            <mxPoint x="760" y="330" as="sourcePoint" />
            <mxPoint x="670" y="329.72" as="targetPoint" />
          </mxGeometry>
        </mxCell>
        <mxCell id="B9rQnbaMN1pnAV0mWjBz-117" value="" style="shape=flexArrow;endArrow=classic;html=1;rounded=0;fillColor=#99CCFF;strokeColor=#99CCFF;" edge="1" parent="1">
          <mxGeometry width="50" height="50" relative="1" as="geometry">
            <mxPoint x="570" y="520" as="sourcePoint" />
            <mxPoint x="569.72" y="430" as="targetPoint" />
          </mxGeometry>
        </mxCell>
        <mxCell id="B9rQnbaMN1pnAV0mWjBz-118" value="" style="shape=flexArrow;endArrow=classic;html=1;rounded=0;fillColor=#99CCFF;strokeColor=#99CCFF;" edge="1" parent="1">
          <mxGeometry width="50" height="50" relative="1" as="geometry">
            <mxPoint x="390" y="520" as="sourcePoint" />
            <mxPoint x="389.72" y="429.44" as="targetPoint" />
          </mxGeometry>
        </mxCell>
        <mxCell id="B9rQnbaMN1pnAV0mWjBz-119" value="" style="shape=flexArrow;endArrow=classic;startArrow=classic;html=1;rounded=0;exitX=1;exitY=0.5;exitDx=0;exitDy=0;fillColor=#99CCFF;strokeColor=#99CCFF;" edge="1" parent="1" source="B9rQnbaMN1pnAV0mWjBz-96">
          <mxGeometry width="100" height="100" relative="1" as="geometry">
            <mxPoint x="440" y="330" as="sourcePoint" />
            <mxPoint x="380" y="330" as="targetPoint" />
          </mxGeometry>
        </mxCell>
        <mxCell id="B9rQnbaMN1pnAV0mWjBz-120" value="" style="shape=flexArrow;endArrow=classic;startArrow=classic;html=1;rounded=0;entryX=0;entryY=0.5;entryDx=0;entryDy=0;fillColor=#99CCFF;strokeColor=#99CCFF;" edge="1" parent="1">
          <mxGeometry width="100" height="100" relative="1" as="geometry">
            <mxPoint x="580" y="330" as="sourcePoint" />
            <mxPoint x="650" y="329.72" as="targetPoint" />
          </mxGeometry>
        </mxCell>
        <mxCell id="B9rQnbaMN1pnAV0mWjBz-121" value="" style="whiteSpace=wrap;html=1;aspect=fixed;fillColor=#7EA6E0;strokeColor=#7EA6E0;" vertex="1" parent="1">
          <mxGeometry x="380" y="320" width="20" height="20" as="geometry" />
        </mxCell>
        <mxCell id="B9rQnbaMN1pnAV0mWjBz-122" value="" style="whiteSpace=wrap;html=1;aspect=fixed;fillColor=#7EA6E0;strokeColor=#7EA6E0;" vertex="1" parent="1">
          <mxGeometry x="560" y="320" width="20" height="20" as="geometry" />
        </mxCell>
        <mxCell id="B9rQnbaMN1pnAV0mWjBz-123" value="" style="shape=flexArrow;endArrow=classic;startArrow=classic;html=1;rounded=0;entryX=0;entryY=0.5;entryDx=0;entryDy=0;fillColor=#99CCFF;strokeColor=#99CCFF;" edge="1" parent="1">
          <mxGeometry width="100" height="100" relative="1" as="geometry">
            <mxPoint x="490" y="330" as="sourcePoint" />
            <mxPoint x="560" y="329.72" as="targetPoint" />
          </mxGeometry>
        </mxCell>
        <mxCell id="B9rQnbaMN1pnAV0mWjBz-124" value="" style="shape=flexArrow;endArrow=classic;startArrow=classic;html=1;rounded=0;entryX=0;entryY=0.5;entryDx=0;entryDy=0;fillColor=#99CCFF;strokeColor=#99CCFF;" edge="1" parent="1">
          <mxGeometry width="100" height="100" relative="1" as="geometry">
            <mxPoint x="400" y="330" as="sourcePoint" />
            <mxPoint x="470" y="329.72" as="targetPoint" />
          </mxGeometry>
        </mxCell>
        <mxCell id="B9rQnbaMN1pnAV0mWjBz-125" value="" style="shape=flexArrow;endArrow=classic;startArrow=classic;html=1;rounded=0;entryX=0.5;entryY=0;entryDx=0;entryDy=0;fillColor=#99CCFF;strokeColor=#99CCFF;" edge="1" parent="1" target="B9rQnbaMN1pnAV0mWjBz-121">
          <mxGeometry width="100" height="100" relative="1" as="geometry">
            <mxPoint x="390" y="249.72" as="sourcePoint" />
            <mxPoint x="460" y="249.44000000000003" as="targetPoint" />
          </mxGeometry>
        </mxCell>
        <mxCell id="B9rQnbaMN1pnAV0mWjBz-126" value="" style="shape=flexArrow;endArrow=classic;startArrow=classic;html=1;rounded=0;entryX=0.5;entryY=0;entryDx=0;entryDy=0;fillColor=#99CCFF;strokeColor=#99CCFF;" edge="1" parent="1">
          <mxGeometry width="100" height="100" relative="1" as="geometry">
            <mxPoint x="389.72" y="339.72" as="sourcePoint" />
            <mxPoint x="389.72" y="410" as="targetPoint" />
          </mxGeometry>
        </mxCell>
        <mxCell id="B9rQnbaMN1pnAV0mWjBz-127" value="" style="shape=flexArrow;endArrow=classic;startArrow=classic;html=1;rounded=0;entryX=0.5;entryY=0;entryDx=0;entryDy=0;fillColor=#99CCFF;strokeColor=#99CCFF;" edge="1" parent="1">
          <mxGeometry width="100" height="100" relative="1" as="geometry">
            <mxPoint x="569.72" y="249.72000000000003" as="sourcePoint" />
            <mxPoint x="569.72" y="320" as="targetPoint" />
          </mxGeometry>
        </mxCell>
        <mxCell id="B9rQnbaMN1pnAV0mWjBz-128" value="" style="shape=flexArrow;endArrow=classic;startArrow=classic;html=1;rounded=0;entryX=0.5;entryY=0;entryDx=0;entryDy=0;fillColor=#99CCFF;strokeColor=#99CCFF;" edge="1" parent="1">
          <mxGeometry width="100" height="100" relative="1" as="geometry">
            <mxPoint x="569.72" y="339.72" as="sourcePoint" />
            <mxPoint x="569.72" y="410" as="targetPoint" />
          </mxGeometry>
        </mxCell>
        <mxCell id="B9rQnbaMN1pnAV0mWjBz-129" value="" style="shape=flexArrow;endArrow=classic;startArrow=classic;html=1;rounded=0;fillColor=#99CCFF;strokeColor=#99CCFF;startWidth=5.760836566031371;startSize=1.170909090909091;endWidth=5.760836566031371;endSize=0.9651948051948052;width=4.103896103896104;entryX=0.5;entryY=0;entryDx=0;entryDy=0;exitX=0.5;exitY=1.025;exitDx=0;exitDy=0;exitPerimeter=0;" edge="1" parent="1" source="B9rQnbaMN1pnAV0mWjBz-95" target="B9rQnbaMN1pnAV0mWjBz-81">
          <mxGeometry width="100" height="100" relative="1" as="geometry">
            <mxPoint x="490" y="350" as="sourcePoint" />
            <mxPoint x="480" y="360" as="targetPoint" />
          </mxGeometry>
        </mxCell>
        <mxCell id="B9rQnbaMN1pnAV0mWjBz-130" value="" style="shape=flexArrow;endArrow=classic;startArrow=classic;html=1;rounded=0;fillColor=#99CCFF;strokeColor=#99CCFF;startWidth=5.760836566031371;startSize=1.170909090909091;endWidth=5.760836566031371;endSize=0.9651948051948052;width=4.103896103896104;entryX=0.5;entryY=0;entryDx=0;entryDy=0;exitX=0.5;exitY=1.025;exitDx=0;exitDy=0;exitPerimeter=0;" edge="1" parent="1">
          <mxGeometry width="100" height="100" relative="1" as="geometry">
            <mxPoint x="479.79" y="301" as="sourcePoint" />
            <mxPoint x="479.79" y="320" as="targetPoint" />
          </mxGeometry>
        </mxCell>
        <mxCell id="B9rQnbaMN1pnAV0mWjBz-131" value="" style="shape=flexArrow;endArrow=classic;startArrow=classic;html=1;rounded=0;fillColor=#99CCFF;strokeColor=#99CCFF;startWidth=5.760836566031371;startSize=1.170909090909091;endWidth=5.760836566031371;endSize=0.9651948051948052;width=4.103896103896104;entryX=0.5;entryY=0;entryDx=0;entryDy=0;exitX=0.5;exitY=1.025;exitDx=0;exitDy=0;exitPerimeter=0;" edge="1" parent="1">
          <mxGeometry width="100" height="100" relative="1" as="geometry">
            <mxPoint x="659.79" y="340" as="sourcePoint" />
            <mxPoint x="659.79" y="359" as="targetPoint" />
          </mxGeometry>
        </mxCell>
        <mxCell id="B9rQnbaMN1pnAV0mWjBz-132" value="" style="shape=flexArrow;endArrow=classic;startArrow=classic;html=1;rounded=0;fillColor=#99CCFF;strokeColor=#99CCFF;startWidth=5.760836566031371;startSize=1.170909090909091;endWidth=5.760836566031371;endSize=0.9651948051948052;width=4.103896103896104;entryX=0.5;entryY=0;entryDx=0;entryDy=0;exitX=0.5;exitY=1.025;exitDx=0;exitDy=0;exitPerimeter=0;" edge="1" parent="1">
          <mxGeometry width="100" height="100" relative="1" as="geometry">
            <mxPoint x="659.79" y="301" as="sourcePoint" />
            <mxPoint x="659.79" y="320" as="targetPoint" />
          </mxGeometry>
        </mxCell>
        <mxCell id="B9rQnbaMN1pnAV0mWjBz-133" value="" style="shape=flexArrow;endArrow=classic;startArrow=classic;html=1;rounded=0;fillColor=#99CCFF;strokeColor=#99CCFF;startWidth=5.760836566031371;startSize=1.170909090909091;endWidth=5.760836566031371;endSize=0.9651948051948052;width=4.103896103896104;entryX=0.5;entryY=0;entryDx=0;entryDy=0;exitX=0.5;exitY=1.025;exitDx=0;exitDy=0;exitPerimeter=0;" edge="1" parent="1" target="B9rQnbaMN1pnAV0mWjBz-96">
          <mxGeometry width="100" height="100" relative="1" as="geometry">
            <mxPoint x="299.91999999999996" y="300" as="sourcePoint" />
            <mxPoint x="299.91999999999996" y="319" as="targetPoint" />
          </mxGeometry>
        </mxCell>
        <mxCell id="B9rQnbaMN1pnAV0mWjBz-134" value="" style="shape=flexArrow;endArrow=classic;startArrow=classic;html=1;rounded=0;fillColor=#99CCFF;strokeColor=#99CCFF;startWidth=5.760836566031371;startSize=1.170909090909091;endWidth=5.760836566031371;endSize=0.9651948051948052;width=4.103896103896104;entryX=0.5;entryY=0;entryDx=0;entryDy=0;exitX=0.5;exitY=1.025;exitDx=0;exitDy=0;exitPerimeter=0;" edge="1" parent="1">
          <mxGeometry width="100" height="100" relative="1" as="geometry">
            <mxPoint x="299.78" y="340" as="sourcePoint" />
            <mxPoint x="299.78" y="359" as="targetPoint" />
          </mxGeometry>
        </mxCell>
        <mxCell id="B9rQnbaMN1pnAV0mWjBz-135" value="" style="shape=flexArrow;endArrow=classic;startArrow=classic;html=1;rounded=0;fillColor=#99CCFF;strokeColor=#99CCFF;startWidth=5.760836566031371;startSize=1.170909090909091;endWidth=5.760836566031371;endSize=0.9651948051948052;width=4.103896103896104;exitX=0;exitY=0.5;exitDx=0;exitDy=0;" edge="1" parent="1" source="B9rQnbaMN1pnAV0mWjBz-27">
          <mxGeometry width="100" height="100" relative="1" as="geometry">
            <mxPoint x="400" y="220" as="sourcePoint" />
            <mxPoint x="400" y="240" as="targetPoint" />
          </mxGeometry>
        </mxCell>
        <mxCell id="B9rQnbaMN1pnAV0mWjBz-136" value="" style="shape=flexArrow;endArrow=classic;startArrow=classic;html=1;rounded=0;fillColor=#99CCFF;strokeColor=#99CCFF;startWidth=5.760836566031371;startSize=1.170909090909091;endWidth=5.760836566031371;endSize=0.9651948051948052;width=4.103896103896104;exitX=0;exitY=0.5;exitDx=0;exitDy=0;" edge="1" parent="1">
          <mxGeometry width="100" height="100" relative="1" as="geometry">
            <mxPoint x="380" y="239.94" as="sourcePoint" />
            <mxPoint x="360" y="239.94" as="targetPoint" />
          </mxGeometry>
        </mxCell>
        <mxCell id="B9rQnbaMN1pnAV0mWjBz-137" value="" style="shape=flexArrow;endArrow=classic;startArrow=classic;html=1;rounded=0;fillColor=#99CCFF;strokeColor=#99CCFF;startWidth=5.760836566031371;startSize=1.170909090909091;endWidth=5.760836566031371;endSize=0.9651948051948052;width=4.103896103896104;exitX=0;exitY=0.5;exitDx=0;exitDy=0;" edge="1" parent="1">
          <mxGeometry width="100" height="100" relative="1" as="geometry">
            <mxPoint x="560" y="239.87" as="sourcePoint" />
            <mxPoint x="540" y="239.87" as="targetPoint" />
          </mxGeometry>
        </mxCell>
        <mxCell id="B9rQnbaMN1pnAV0mWjBz-138" value="" style="shape=flexArrow;endArrow=classic;startArrow=classic;html=1;rounded=0;fillColor=#99CCFF;strokeColor=#99CCFF;startWidth=5.760836566031371;startSize=1.170909090909091;endWidth=5.760836566031371;endSize=0.9651948051948052;width=4.103896103896104;exitX=0;exitY=0.5;exitDx=0;exitDy=0;" edge="1" parent="1">
          <mxGeometry width="100" height="100" relative="1" as="geometry">
            <mxPoint x="600" y="239.87" as="sourcePoint" />
            <mxPoint x="580" y="239.87" as="targetPoint" />
          </mxGeometry>
        </mxCell>
        <mxCell id="B9rQnbaMN1pnAV0mWjBz-139" value="" style="shape=flexArrow;endArrow=classic;startArrow=classic;html=1;rounded=0;fillColor=#99CCFF;strokeColor=#99CCFF;startWidth=5.760836566031371;startSize=1.170909090909091;endWidth=5.760836566031371;endSize=0.9651948051948052;width=4.103896103896104;exitX=0;exitY=0.5;exitDx=0;exitDy=0;" edge="1" parent="1">
          <mxGeometry width="100" height="100" relative="1" as="geometry">
            <mxPoint x="420" y="419.87" as="sourcePoint" />
            <mxPoint x="400" y="419.87" as="targetPoint" />
          </mxGeometry>
        </mxCell>
        <mxCell id="B9rQnbaMN1pnAV0mWjBz-140" value="" style="shape=flexArrow;endArrow=classic;startArrow=classic;html=1;rounded=0;fillColor=#99CCFF;strokeColor=#99CCFF;startWidth=5.760836566031371;startSize=1.170909090909091;endWidth=5.760836566031371;endSize=0.9651948051948052;width=4.103896103896104;exitX=0;exitY=0.5;exitDx=0;exitDy=0;" edge="1" parent="1">
          <mxGeometry width="100" height="100" relative="1" as="geometry">
            <mxPoint x="380" y="419.87" as="sourcePoint" />
            <mxPoint x="360" y="419.87" as="targetPoint" />
          </mxGeometry>
        </mxCell>
        <mxCell id="B9rQnbaMN1pnAV0mWjBz-141" value="" style="shape=flexArrow;endArrow=classic;startArrow=classic;html=1;rounded=0;fillColor=#99CCFF;strokeColor=#99CCFF;startWidth=5.760836566031371;startSize=1.170909090909091;endWidth=5.760836566031371;endSize=0.9651948051948052;width=4.103896103896104;exitX=0;exitY=0.5;exitDx=0;exitDy=0;" edge="1" parent="1">
          <mxGeometry width="100" height="100" relative="1" as="geometry">
            <mxPoint x="560" y="419.87" as="sourcePoint" />
            <mxPoint x="540" y="419.87" as="targetPoint" />
          </mxGeometry>
        </mxCell>
        <mxCell id="B9rQnbaMN1pnAV0mWjBz-142" value="" style="shape=flexArrow;endArrow=classic;startArrow=classic;html=1;rounded=0;fillColor=#99CCFF;strokeColor=#99CCFF;startWidth=5.760836566031371;startSize=1.170909090909091;endWidth=5.760836566031371;endSize=0.9651948051948052;width=4.103896103896104;exitX=0;exitY=0.5;exitDx=0;exitDy=0;" edge="1" parent="1">
          <mxGeometry width="100" height="100" relative="1" as="geometry">
            <mxPoint x="600" y="419.87" as="sourcePoint" />
            <mxPoint x="580" y="419.87" as="targetPoint" />
          </mxGeometry>
        </mxCell>
        <mxCell id="B9rQnbaMN1pnAV0mWjBz-143" value="$$\text{Programmable Interconnect}$$" style="text;html=1;align=left;verticalAlign=middle;whiteSpace=wrap;rounded=0;" vertex="1" parent="1">
          <mxGeometry x="800" y="200" width="180" height="30" as="geometry" />
        </mxCell>
        <mxCell id="B9rQnbaMN1pnAV0mWjBz-144" value="" style="endArrow=classic;html=1;rounded=0;entryX=1;entryY=0;entryDx=0;entryDy=0;exitX=0;exitY=0.5;exitDx=0;exitDy=0;" edge="1" parent="1" source="B9rQnbaMN1pnAV0mWjBz-143" target="B9rQnbaMN1pnAV0mWjBz-97">
          <mxGeometry width="50" height="50" relative="1" as="geometry">
            <mxPoint x="910" y="350" as="sourcePoint" />
            <mxPoint x="790" y="360" as="targetPoint" />
          </mxGeometry>
        </mxCell>
        <mxCell id="B9rQnbaMN1pnAV0mWjBz-145" value="" style="endArrow=classic;html=1;rounded=0;exitX=0;exitY=0.5;exitDx=0;exitDy=0;entryX=1;entryY=0;entryDx=0;entryDy=0;" edge="1" parent="1" source="B9rQnbaMN1pnAV0mWjBz-143" target="B9rQnbaMN1pnAV0mWjBz-52">
          <mxGeometry width="50" height="50" relative="1" as="geometry">
            <mxPoint x="830" y="340" as="sourcePoint" />
            <mxPoint x="880" y="290" as="targetPoint" />
          </mxGeometry>
        </mxCell>
        <mxCell id="B9rQnbaMN1pnAV0mWjBz-146" value="$$\text{PLBs}$$" style="text;html=1;align=left;verticalAlign=middle;whiteSpace=wrap;rounded=0;" vertex="1" parent="1">
          <mxGeometry x="800" y="325" width="180" height="30" as="geometry" />
        </mxCell>
        <mxCell id="B9rQnbaMN1pnAV0mWjBz-147" value="$$\text{PLEs}$$" style="text;html=1;align=left;verticalAlign=middle;whiteSpace=wrap;rounded=0;" vertex="1" parent="1">
          <mxGeometry x="800" y="450" width="180" height="30" as="geometry" />
        </mxCell>
        <mxCell id="B9rQnbaMN1pnAV0mWjBz-148" value="" style="endArrow=classic;html=1;rounded=0;entryX=1;entryY=0;entryDx=0;entryDy=0;exitX=0;exitY=0.5;exitDx=0;exitDy=0;" edge="1" parent="1" source="B9rQnbaMN1pnAV0mWjBz-146" target="B9rQnbaMN1pnAV0mWjBz-69">
          <mxGeometry width="50" height="50" relative="1" as="geometry">
            <mxPoint x="920" y="320" as="sourcePoint" />
            <mxPoint x="800" y="440" as="targetPoint" />
          </mxGeometry>
        </mxCell>
        <mxCell id="B9rQnbaMN1pnAV0mWjBz-149" value="" style="endArrow=classic;html=1;rounded=0;exitX=0;exitY=0.5;exitDx=0;exitDy=0;entryX=1;entryY=0;entryDx=0;entryDy=0;" edge="1" parent="1" source="B9rQnbaMN1pnAV0mWjBz-146" target="B9rQnbaMN1pnAV0mWjBz-82">
          <mxGeometry width="50" height="50" relative="1" as="geometry">
            <mxPoint x="780" y="490" as="sourcePoint" />
            <mxPoint x="830" y="440" as="targetPoint" />
          </mxGeometry>
        </mxCell>
        <mxCell id="B9rQnbaMN1pnAV0mWjBz-150" value="" style="endArrow=classic;html=1;rounded=0;exitX=0;exitY=0.5;exitDx=0;exitDy=0;" edge="1" parent="1" source="B9rQnbaMN1pnAV0mWjBz-147" target="B9rQnbaMN1pnAV0mWjBz-83">
          <mxGeometry width="50" height="50" relative="1" as="geometry">
            <mxPoint x="780" y="490" as="sourcePoint" />
            <mxPoint x="660" y="420" as="targetPoint" />
          </mxGeometry>
        </mxCell>
        <mxCell id="B9rQnbaMN1pnAV0mWjBz-154" value="" style="rounded=0;whiteSpace=wrap;html=1;strokeColor=#004C99;fillColor=#004C99;" vertex="1" parent="1">
          <mxGeometry x="625" y="420" width="70" height="10" as="geometry" />
        </mxCell>
        <mxCell id="B9rQnbaMN1pnAV0mWjBz-157" value="" style="endArrow=none;html=1;rounded=0;strokeColor=#004C99;" edge="1" parent="1" target="B9rQnbaMN1pnAV0mWjBz-156">
          <mxGeometry width="50" height="50" relative="1" as="geometry">
            <mxPoint x="625" y="450" as="sourcePoint" />
            <mxPoint x="695" y="450" as="targetPoint" />
          </mxGeometry>
        </mxCell>
        <mxCell id="B9rQnbaMN1pnAV0mWjBz-156" value="" style="rounded=0;whiteSpace=wrap;html=1;strokeColor=#004C99;fillColor=#004C99;" vertex="1" parent="1">
          <mxGeometry x="625" y="450" width="70" height="10" as="geometry" />
        </mxCell>
        <mxCell id="B9rQnbaMN1pnAV0mWjBz-158" value="" style="endArrow=classic;html=1;rounded=0;exitX=0;exitY=0.5;exitDx=0;exitDy=0;entryX=0.994;entryY=0.394;entryDx=0;entryDy=0;entryPerimeter=0;" edge="1" parent="1" source="B9rQnbaMN1pnAV0mWjBz-147" target="B9rQnbaMN1pnAV0mWjBz-156">
          <mxGeometry width="50" height="50" relative="1" as="geometry">
            <mxPoint x="840" y="470" as="sourcePoint" />
            <mxPoint x="890" y="420" as="targetPoint" />
          </mxGeometry>
        </mxCell>
      </root>
    </mxGraphModel>
  </diagram>
</mxfile>
